<svg xmlns="http://www.w3.org/2000/svg" viewBox="0 0 18 18"><defs><style>.cls-1{fill:#00e5ff;fill-opacity:0;}.cls-2{fill:#dcdde0;}</style></defs><g id="图层_2" data-name="图层 2"><g id="图层_1-2" data-name="图层 1"><rect id="矩形_5259-2" data-name="矩形 5259-2" class="cls-1" width="18" height="18"/><path class="cls-2" d="M8.89,7A2,2,0,0,0,7,8.89Z"/><path class="cls-2" d="M10,7.29,7.29,10A2,2,0,1,0,10,7.29Z"/><path class="cls-2" d="M6.12,9.79A3,3,0,0,1,9.79,6.12l1.74-1.75A8.8,8.8,0,0,0,9,4,9,9,0,0,0,1,9,9.16,9.16,0,0,0,3.7,12.2Z"/><path class="cls-2" d="M12.56,4.76,10.75,6.57a3,3,0,1,1-4.18,4.18l-2,2A8.71,8.71,0,0,0,9,14a9,9,0,0,0,8-5A9.12,9.12,0,0,0,12.56,4.76Z"/><rect id="矩形_5293" data-name="矩形 5293" class="cls-2" x="2.36" y="8.37" width="14" height="2" transform="translate(-3.88 9.37) rotate(-45)"/></g></g></svg>